<?xml version="1.0" encoding="iso-8859-1"?>
<!-- Generator: Adobe Illustrator 19.0.0, SVG Export Plug-In . SVG Version: 6.00 Build 0)  -->
<svg version="1.1" id="Capa_1" xmlns="http://www.w3.org/2000/svg" xmlns:xlink="http://www.w3.org/1999/xlink" x="0px" y="0px"
	 viewBox="0 0 512 512" style="enable-background:new 0 0 512 512;" xml:space="preserve">
<g>
	<g>
		<path d="M496.971,361.206h-15.029V105.706c0-24.859-20.229-45.088-45.088-45.088H75.147c-24.859,0-45.088,20.229-45.088,45.088
			v255.499H15.029C6.733,361.206,0,367.939,0,376.235v30.059c0,24.859,20.229,45.088,45.088,45.088h421.824
			c24.859,0,45.088-20.229,45.088-45.088v-30.059C512,367.939,505.267,361.206,496.971,361.206z M60.117,105.706
			c0-8.286,6.743-15.029,15.029-15.029h361.706c8.286,0,15.029,6.743,15.029,15.029v255.499H60.117V105.706z M481.941,406.294
			c0,8.286-6.743,15.029-15.029,15.029H45.088c-8.286,0-15.029-6.743-15.029-15.029v-15.029h451.883V406.294z"/>
	</g>
</g>
<g>
	<g>
		<path d="M255.499,120.736c-74.472,0-135.264,60.565-135.264,135.264c0,23.696,6.252,47.082,18.075,67.622
			c2.685,4.649,7.655,7.525,13.025,7.525h208.267c5.36,0,10.31-2.856,12.995-7.495c11.883-20.49,18.165-43.886,18.165-67.652
			C390.763,180.987,329.548,120.736,255.499,120.736z M350.545,301.088h-94.955c5.471-0.04,10.731-3.076,13.356-8.306l30.059-60.117
			c3.707-7.424,0.701-16.452-6.723-20.169c-7.424-3.707-16.452-0.701-20.169,6.723l-30.059,60.117
			c-3.707,7.424-0.701,16.452,6.723,20.169c2.144,1.062,4.409,1.573,6.653,1.583h-95.006c-4.499-9.519-7.545-19.658-9.048-30.059
			h13.947c8.296,0,15.029-6.733,15.029-15.029c0-8.296-6.733-15.029-15.029-15.029h-13.947c2.555-17.795,9.579-34.177,19.899-47.944
			l9.829,9.839c5.861,5.861,15.392,5.869,21.262,0c5.861-5.871,5.861-15.39,0-21.262l-9.839-9.829
			c13.767-10.32,30.149-17.344,47.944-19.899v13.947c0,8.296,6.733,15.029,15.029,15.029s15.029-6.733,15.029-15.029v-13.927
			c17.484,2.535,33.936,9.458,47.914,19.909l-9.809,9.799c-5.871,5.871-5.871,15.39,0,21.262c5.861,5.861,15.392,5.869,21.262,0
			l9.819-9.829c2.705,3.607,5.21,7.404,7.455,11.392c6.383,11.292,10.591,23.716,12.444,36.541h-13.937
			c-8.296,0-15.029,6.733-15.029,15.029c0,8.296,6.733,14.929,15.029,14.929h13.947
			C358.109,281.349,355.053,291.589,350.545,301.088z"/>
	</g>
</g>
<g>
</g>
<g>
</g>
<g>
</g>
<g>
</g>
<g>
</g>
<g>
</g>
<g>
</g>
<g>
</g>
<g>
</g>
<g>
</g>
<g>
</g>
<g>
</g>
<g>
</g>
<g>
</g>
<g>
</g>
</svg>
