<?xml version="1.0" encoding="iso-8859-1"?>
<!-- Generator: Adobe Illustrator 19.0.0, SVG Export Plug-In . SVG Version: 6.00 Build 0)  -->
<svg version="1.1" id="Capa_1" xmlns="http://www.w3.org/2000/svg" xmlns:xlink="http://www.w3.org/1999/xlink" x="0px" y="0px"
	 viewBox="0 0 512 512" style="enable-background:new 0 0 512 512;" xml:space="preserve">
<g>
	<g>
		<path d="M261.735,122.017c-5.601-2.321-12.046-1.037-16.33,3.248l-29.969,29.969c-5.852,5.852-5.852,15.339,0,21.191
			c5.851,5.853,15.339,5.853,21.191,0.001l4.39-4.39v84.7c0,8.276,6.709,14.985,14.985,14.985c8.276,0,14.985-6.709,14.985-14.985
			V135.861C270.986,129.8,267.334,124.337,261.735,122.017z"/>
	</g>
</g>
<g>
	<g>
		<path d="M488.113,440.02L421.98,298.185c18.261-29.809,28.82-64.874,28.82-102.385C450.801,87.84,363.41,0,256,0
			S61.199,87.84,61.199,195.8c0,37.512,10.559,72.576,28.82,102.385L23.888,440.02c-2.557,5.484-1.558,11.988,2.537,16.453
			c4.096,4.465,10.479,6.034,16.173,3.956l65.573-23.866l23.866,65.573c2.068,5.694,7.372,9.58,13.426,9.85
			c5.974,0.26,11.638-3.077,14.235-8.641l54.255-116.351c13.546,3.007,27.612,4.605,42.047,4.605s28.501-1.598,42.047-4.605
			l54.254,116.351c2.467,5.295,7.782,8.651,13.576,8.651c6.304,0,11.928-3.936,14.086-9.86l23.866-65.573l65.573,23.866
			c5.704,2.078,12.078,0.509,16.173-3.956S490.67,445.504,488.113,440.02z M147.821,457.891l-16.613-45.663
			c-1.359-3.726-4.146-6.773-7.752-8.451c-3.596-1.678-7.722-1.858-11.458-0.5L66.344,419.89l43.955-94.274
			c20.279,22.957,45.823,41.118,74.714,52.526L147.821,457.891z M256,361.63c-90.887,0-164.831-74.394-164.831-165.83
			S165.113,29.969,256,29.969s164.831,74.394,164.831,165.83S346.887,361.63,256,361.63z M400.003,403.277
			c-7.772-2.827-16.383,1.179-19.21,8.951l-16.613,45.663l-37.192-79.748c28.89-11.408,54.434-29.57,74.714-52.526l43.955,94.274
			L400.003,403.277z"/>
	</g>
</g>
<g>
	<g>
		<path d="M256,60.938c-74.364,0-134.862,60.498-134.862,134.862c0,74.404,60.368,135.861,134.862,135.861
			c74.394,0,134.862-61.367,134.862-135.861C390.862,121.436,330.364,60.938,256,60.938z M256,301.691
			c-57.841,0-104.893-47.501-104.893-105.892c0-57.841,47.052-104.893,104.893-104.893S360.893,137.959,360.893,195.8
			C360.893,254.19,313.841,301.691,256,301.691z"/>
	</g>
</g>
<g>
</g>
<g>
</g>
<g>
</g>
<g>
</g>
<g>
</g>
<g>
</g>
<g>
</g>
<g>
</g>
<g>
</g>
<g>
</g>
<g>
</g>
<g>
</g>
<g>
</g>
<g>
</g>
<g>
</g>
</svg>
